<svg
    id="Layer_1"
    version="1.1"
    xmlns="http://www.w3.org/2000/svg"
    x="0"
    y="0"
    viewBox="0 0 60 60"
    style="enable-background:new 0 0 60 60"
    xml:space="preserve"
  ><style>.st0{fill:#57565c}.st1{fill:#d6d6d6}.st2{fill:#3d76f8}.st4{fill:#136afb}.st5{fill:#ffc200}.st6{fill:#ea4747}.st8{fill:#f5c09a}.st9{fill:#ff9300}.st10{fill:#fff}</style><g id="Medicine" transform="translate(1690 -363)"><g id="Group_25903" transform="translate(-1718 37.076)"><g id="flat" transform="translate(36 336)"><ellipse
    id="Ellipse_1135"
    class="st0"
    cx="10.9"
    cy="40.8"
    rx="6.9"
    ry="6.4"
  /><circle id="Ellipse_1138" class="st1" cx="11.7" cy="40.7" r="2.2" /><path id="Path_20029" class="st2" d="m10.2 36.5 13.9-1.3v6.7H12.4c-1.2 0-2.1-1-2.1-2.1v-3.3z" /><ellipse
    id="Ellipse_1136"
    class="st0"
    cx="45.1"
    cy="40.7"
    rx="6"
    ry="6.6"
  /><circle id="Ellipse_1137" class="st1" cx="45.6" cy="40.7" r="2.2" /><path id="Path_20030" d="m46.5 40.3-5.4-9.6c-.3-.5-1-.7-1.5-.4-.5.3-.7.9-.4 1.4l5.4 9.6 1.9-1z" style="fill:#898890" /><path id="Path_20031" class="st4" d="M39.1 34.4H52c0-2.9-2.4-5.3-5.3-5.3h-3.2l-4.4 5.3z" /><path id="Path_20032" class="st4" d="M33.8 37.6 37 30l-3.2-12.8 2.8-.6L44.5 29l-6.4 8.6v2.1c0 1.2-1 2.1-2.1 2.1H24.1l-6.4-5.4H2.3c-1 0-1.8-.8-1.8-1.8v-6.2c0-.4.2-.7.5-.9l4.8-2.9h19.3v12.9h8.7z" /><path id="Path_20033" class="st5" d="M39.1 10.8h2.1c1.8 0 3.2 1.4 3.3 3.2 0 1.8-1.4 3.2-3.2 3.3h-2.2" /><path id="Path_20034" class="st4" d="M40.2 17.2h-6.4V14l4.3-3.2h2.1v6.4z" /><path id="Path_20035" class="st5" d="M11.3 5.5H-8v19.3h19.3V5.5z" /><path id="Path_20036" class="st6" d="M29.5 33.3h-4.3v4.3h7.5v-1.1c0-1.7-1.4-3.2-3.2-3.2z" /><path id="Path_20037" d="m23.3 7 3.8 4.5c.2.2.4.4.7.5l6 2v3.2L27 15.5c-1.1-.3-2.2-.9-3-1.7l-2-2v9.6h-6.4V8.7c0-1.8 1.4-3.2 3.2-3.2H20c1.3 0 2.5.5 3.3 1.5z" style="fill:#00b1ff" /><path id="Path_20038" class="st0" d="M29.5 23.7v9.6h-4.3v-8.6h-7.5c-1.2 0-2.1-1-2.1-2.1v-2.1h10.7c1.8 0 3.2 1.4 3.2 3.2z" /><path id="Path_20039" class="st8" d="M16.6-2v4.3c0 1.8 1.4 3.2 3.2 3.2h1.1c1.8 0 3.2-1.4 3.2-3.2V-2h-7.5z" /><path id="Path_20040" class="st2" d="M25.2 29H13.4v2.1h11.8V29z" /><path id="Path_20041" class="st2" d="M11.3 29H5.9v2.1h5.4V29z" /><path id="Path_20042" class="st6" d="M3.8 29H.6v2.1h3.2V29z" /><g id="Group_19629" transform="translate(6.852 11.747)"><path id="Path_20043" class="st9" d="M-3.1-6.3h-4.3V-2h4.3v-4.3z" /></g><path id="Path_20047" class="st8" d="M35.4 14h-1.6v3.2h2.1c.6 0 1.1-.5 1.1-1.1v-.5c0-.8-.7-1.6-1.6-1.6z" /><path id="Path_20048" class="st0" d="M26.3-3.1c0 .6-.4 1.1-1.1 1.2l-5.3.9V.1c0 1.2-1 2.1-2.1 2.1h-.4c-1 0-1.7-.8-1.7-1.7v-3.6c0-2.4 1.9-4.3 4.3-4.3h2c2.4 0 4.3 1.9 4.3 4.3z" /><g id="pills_2_" transform="translate(4.756 18.178)"><path id="Path_14056" class="st9" d="M.6 2.4c.8-.8.8-2.1 0-2.9l-2.1-2.1-2.6.4-.4 2.6 2.1 2.1c.8.7 2.2.7 3-.1z" /><path id="Path_14057" class="st10" d="M-1.6-2.6-4-5.1c-.8-.8-2.1-.9-2.9-.1-.8.8-.9 2.1-.1 2.9l.1.1L-4.4.3l2.8-2.9z" /><path id="Path_14058" class="st10" d="m-3.1-1-2.5-2.5c-.5-.5-.7-1.3-.5-2.1-1.1.4-1.7 1.5-1.3 2.6.1.3.3.6.5.8L-4.4.3-3.1-1z" /></g></g></g></g>
  </svg>